<svg xmlns="http://www.w3.org/2000/svg" width="57.925" height="41.602" viewBox="0 0 57.925 41.602"><defs><style>.a{fill:#0090d4;}</style></defs><g transform="translate(14.056 2.72)"><g transform="translate(0 0)"><path class="a" d="M150.022,100.907a.849.849,0,0,0-.085-.1.857.857,0,0,0-.07-.062,14.864,14.864,0,0,0-10.414-4.553c-.025,0-.051,0-.076,0l-.046,0-.181,0a14.923,14.923,0,0,0-14.906,14.906c0,.03,0,.06,0,.091,0,.008,0,.015,0,.023s0,.025,0,.038a14.906,14.906,0,1,0,25.776-10.338ZM139.15,124.3a13.223,13.223,0,0,1-13.171-12.242h1.042a.85.85,0,1,0,0-1.7h-1.056a13.151,13.151,0,0,1,3.292-8l.748.749a.85.85,0,1,0,1.2-1.2l-.746-.746a13.15,13.15,0,0,1,8.064-3.254v1.062a.85.85,0,1,0,1.7,0V97.932a13.159,13.159,0,0,1,7.9,3.484l-.646.646a.85.85,0,0,0,1.2,1.2l.614-.614a13.144,13.144,0,0,1,3.049,7.933h-1.179a.85.85,0,0,0,0,1.7H152.3A13.224,13.224,0,0,1,139.15,124.3Z" transform="translate(-124.244 -96.187)"/></g></g><g transform="translate(0 0)"><g transform="translate(0 0)"><path class="a" d="M46.529,88.31a17.627,17.627,0,0,0-35.132,0,12.753,12.753,0,1,0,12.748,18.413,17.616,17.616,0,0,0,9.637,0A12.753,12.753,0,1,0,46.529,88.31ZM12.753,112.043A11.053,11.053,0,0,1,11.34,90.028q.009.627.063,1.251a9.8,9.8,0,1,0,9.964,14.394q.565.27,1.148.5A11.047,11.047,0,0,1,12.753,112.043Zm16.21-6.348a15.924,15.924,0,0,1-12.052-5.515.85.85,0,1,0-1.286,1.112,17.648,17.648,0,0,0,4.245,3.575,8.1,8.1,0,1,1-8.24-11.9,17.58,17.58,0,0,0,1.942,5.4.85.85,0,0,0,1.484-.831,15.926,15.926,0,1,1,27.856-.075.85.85,0,0,0,1.488.822,17.586,17.586,0,0,0,1.9-5.317,8.1,8.1,0,1,1-8.24,11.9,17.659,17.659,0,0,0,4.3-3.645.85.85,0,1,0-1.292-1.106A15.915,15.915,0,0,1,28.963,105.695Zm16.21,6.348a11.047,11.047,0,0,1-9.762-5.869q.583-.229,1.149-.5a9.8,9.8,0,1,0,9.964-14.394q.054-.623.063-1.251a11.053,11.053,0,0,1-1.413,22.014Z" transform="translate(0 -72.141)"/></g></g><g transform="translate(44.322 27.999)"><path class="a" d="M396.537,321.654l-3.514-1.927a.85.85,0,1,0-.818,1.491l3.514,1.927a.85.85,0,1,0,.818-1.491Z" transform="translate(-391.764 -319.622)"/></g><g transform="translate(9.182 27.999)"><path class="a" d="M85.4,319.947a.85.85,0,0,0-1.194-.139l-2.721,2.154a.85.85,0,1,0,1.055,1.333l2.721-2.154A.85.85,0,0,0,85.4,319.947Z" transform="translate(-81.159 -319.624)"/></g><g transform="translate(21.991 22.558)"><path class="a" d="M206.15,271.53h-9.6a2.175,2.175,0,0,0-2.172,2.172v.983a2.175,2.175,0,0,0,2.172,2.172h9.6a2.175,2.175,0,0,0,2.172-2.172V273.7A2.175,2.175,0,0,0,206.15,271.53Zm.472,3.155a.473.473,0,0,1-.472.472h-9.6a.473.473,0,0,1-.472-.472V273.7a.473.473,0,0,1,.472-.472h9.6a.473.473,0,0,1,.472.472Z" transform="translate(-194.379 -271.53)"/></g><g transform="translate(26.525 13.996)"><path class="a" d="M245.853,196.431a.85.85,0,0,0-1.079-.53l-5.993,2.043a2.437,2.437,0,1,0,.549,1.609l5.992-2.043A.85.85,0,0,0,245.853,196.431Zm-8.3,3.38a.737.737,0,1,1-.9-1.022.732.732,0,0,1,.563.036.737.737,0,0,1,.336.986Z" transform="translate(-234.457 -195.855)"/></g></svg>