<svg xmlns="http://www.w3.org/2000/svg" width="36.673" height="38.737" viewBox="0 0 36.673 38.737"><defs><style>.a{fill:#0090d4;}</style></defs><path class="a" d="M14.15,9.075a4.075,4.075,0,1,0-5.094,3.932v7.416a4.075,4.075,0,0,0,0,7.864V35.7a4.075,4.075,0,1,0,2.037,0V28.288a4.075,4.075,0,0,0,0-7.864V13.007A4.075,4.075,0,0,0,14.15,9.075Zm-6.112,0a2.037,2.037,0,1,1,2.037,2.037A2.037,2.037,0,0,1,8.037,9.075Zm4.075,30.561A2.037,2.037,0,1,1,10.075,37.6,2.037,2.037,0,0,1,12.112,39.636Zm0-15.281a2.037,2.037,0,1,1-2.037-2.037A2.037,2.037,0,0,1,12.112,24.356Z" transform="translate(-6 -4.987)"/><path class="a" d="M41.449,6H18.019a1.019,1.019,0,1,0,0,2.037h23.43a1.019,1.019,0,1,0,0-2.037Z" transform="translate(-5.794 -4.968)"/><path class="a" d="M18.019,12.037H31.262a1.019,1.019,0,1,0,0-2.037H18.019a1.019,1.019,0,0,0,0,2.037Z" transform="translate(-5.794 -4.893)"/><path class="a" d="M42.468,37.019A1.019,1.019,0,0,0,41.449,36H18.019a1.019,1.019,0,1,0,0,2.037h23.43A1.019,1.019,0,0,0,42.468,37.019Z" transform="translate(-5.794 -4.407)"/><path class="a" d="M18.019,40a1.019,1.019,0,0,0,0,2.037H31.262a1.019,1.019,0,0,0,0-2.037Z" transform="translate(-5.794 -4.332)"/><path class="a" d="M41.449,21H18.019a1.019,1.019,0,1,0,0,2.037h23.43a1.019,1.019,0,1,0,0-2.037Z" transform="translate(-5.794 -4.687)"/><path class="a" d="M18.019,27.037H31.262a1.019,1.019,0,1,0,0-2.037H18.019a1.019,1.019,0,1,0,0,2.037Z" transform="translate(-5.794 -4.613)"/></svg>