<svg xmlns="http://www.w3.org/2000/svg" width="46.674" height="48.711" viewBox="0 0 46.674 48.711"><defs><style>.a{fill:#0090d4;}</style></defs><g transform="translate(-2 -0.382)"><path class="a" d="M8.224,24.98A16.358,16.358,0,0,1,23.783,8.66v2.019l10.3-5.149L23.783.382v2.05A22.589,22.589,0,0,0,2,24.98v.778H8.224ZM3.571,24.2A21.029,21.029,0,0,1,24.561,3.975h.778V2.9L30.6,5.531,25.339,8.162V7.087h-.778A17.916,17.916,0,0,0,6.684,24.2Z" transform="translate(0 0)"/><path class="a" d="M34,48.572A16.338,16.338,0,0,1,12.09,43.257l1.749-1.01L4.231,35.9,4.921,47.4,6.7,46.371a22.575,22.575,0,0,0,30.419,7.591l.674-.389-3.112-5.391ZM7.643,44.925l-.389-.674-.93.537-.352-5.872,4.91,3.242-.931.537.389.674A17.916,17.916,0,0,0,34.1,50.293l1.558,2.7A21.032,21.032,0,0,1,7.643,44.925Z" transform="translate(-0.495 -7.887)"/><path class="a" d="M46.42,7.774l-.674-.389-3.112,5.391.674.389A16.34,16.34,0,0,1,49.661,34.8L47.913,33.79l-.69,11.491,9.608-6.343-1.775-1.025A22.592,22.592,0,0,0,46.42,7.774Zm2.543,34.495.352-5.873.931.538.389-.674A17.916,17.916,0,0,0,44.752,12.22l1.557-2.7A21.031,21.031,0,0,1,53.33,37.815l-.389.674.93.537Z" transform="translate(-9.022 -1.555)"/><path class="a" d="M25.668,47.334a2.334,2.334,0,1,0-2.334,2.334A2.337,2.337,0,0,0,25.668,47.334Zm-3.112,0a.778.778,0,1,1,.778.778A.778.778,0,0,1,22.556,47.334Z" transform="translate(-4.219 -9.906)"/><path class="a" d="M33.668,47.334a2.334,2.334,0,1,0-2.334,2.334A2.337,2.337,0,0,0,33.668,47.334Zm-3.112,0a.778.778,0,1,1,.778.778A.778.778,0,0,1,30.556,47.334Z" transform="translate(-5.995 -9.906)"/><path class="a" d="M41.668,47.334a2.334,2.334,0,1,0-2.334,2.334A2.337,2.337,0,0,0,41.668,47.334Zm-3.112,0a.778.778,0,1,1,.778.778A.778.778,0,0,1,38.556,47.334Z" transform="translate(-7.771 -9.906)"/><path class="a" d="M34.671,20.965l-1.556.778V16.778H26.892v8.077l-1.556.778V20.85l-1.556.934V16H17.556v9.518L16,26.451V37.005H40.9V26.114H34.671Zm-6.224-2.631h3.112v4.187l-3.112,1.556Zm-9.336-.778h3.112v5.16l-3.112,1.867Zm3.112,17.893H20.668V33.893h1.556Zm7.78,0H26.892V33.893H30Zm6.224,0H34.671V33.893h1.556Zm1.556,0V32.337H33.115v3.112H31.559V32.337H25.336v3.112H23.78V32.337H19.112v3.112H17.556V30.781H39.339v4.668Zm1.556-7.78v1.556H17.556V27.332L23.78,23.6V28.15l9.336-4.668V27.67Z" transform="translate(-3.108 -3.468)"/></g></svg>