<svg xmlns="http://www.w3.org/2000/svg" width="51.112" height="50.315" viewBox="0 0 51.112 50.315"><defs><style>.a{fill:#0090d4;stroke:#0090d4;stroke-width:0.2px;}</style></defs><g transform="translate(0.1 0.1)"><g transform="translate(0 0)"><g transform="translate(0 0)"><path class="a" d="M50.748,14.649a.746.746,0,0,0-.515-.277L9.058,10.635a2.328,2.328,0,0,0-.68-1.559L3.995,4.692A2.34,2.34,0,0,0,.685,8l4.384,4.384a2.324,2.324,0,0,0,1.655.685,2.349,2.349,0,0,0,.684-.1l6.233,20.641a3.909,3.909,0,0,0,3.758,2.8c.1,0,.2,0,.3-.011l28.19-2.063a3.148,3.148,0,0,0,2.882-2.723l2.139-16.4A.746.746,0,0,0,50.748,14.649ZM7.324,11.331a.848.848,0,0,1-1.2,0L1.74,6.947a.848.848,0,1,1,1.2-1.2l4.384,4.384A.849.849,0,0,1,7.324,11.331Zm18.358,2.311.336,5.456-6.972-.254-1.1-5.9ZM8.7,12.1l7.7.7,1.116,5.989-6.872-.25Zm4.533,15.01L11.1,20.047l6.7.244,1.247,6.691Zm4.349,7.8a2.428,2.428,0,0,1-2.517-1.73l-1.385-4.587,5.638-.125,1.161,6.23Zm1.741-14.563,6.784.247.384,6.222-5.937.132ZM21.98,34.588l-1.147-6.154,5.752-.128.365,5.918Zm11.733-.859-5.275.386-.36-5.843,5.784-.128Zm.188-7.078-5.915.131-.378-6.135,6.447.235Zm.193-7.26-6.579-.24-.331-5.374,7.042.639ZM40.888,33.2l-5.68.416.147-5.509,5.954-.132Zm.541-6.72-6.034.134.151-5.681,6.311.23Zm.548-6.805-6.391-.233.13-4.894,6.625.6Zm5.311,11.739a1.651,1.651,0,0,1-1.512,1.428l-3.383.247.414-5.149,4.947-.11Zm.663-5.079-5.022.112.421-5.229,5.244.191Zm.836-6.412-5.318-.194.358-4.445,5.5.5Z" transform="translate(0 -4.007)"/></g></g><g transform="translate(11.982 33.514)"><path class="a" d="M152.255,351.466v-1.787H153.9a.746.746,0,1,0,0-1.491H122.84a.848.848,0,0,1-.78-1.183l2.107-4.915a.746.746,0,1,0-1.371-.588l-2.107,4.915a2.34,2.34,0,0,0,2.151,3.262h.822v1.787a3.137,3.137,0,1,0,1.492,0v-1.787h25.61v1.787a3.137,3.137,0,1,0,1.492,0Zm-26.2,3.047a1.645,1.645,0,1,1-1.645-1.645A1.647,1.647,0,0,1,126.054,354.512Zm25.456,1.646a1.646,1.646,0,1,1,1.645-1.646A1.647,1.647,0,0,1,151.51,356.158Z" transform="translate(-120.5 -341.049)"/></g></g></svg>