<svg xmlns="http://www.w3.org/2000/svg" width="37.75" height="37.005" viewBox="0 0 37.75 37.005"><defs><style>.a{fill:#0090d4;}</style></defs><path class="a" d="M8.067,54.808H1.11a1.11,1.11,0,0,1,0-2.221H8.067a1.11,1.11,0,0,1,0,2.221Z" transform="translate(0 -48.611)"/><path class="a" d="M89.222,14.674a5.086,5.086,0,1,1,5.086-5.085A5.091,5.091,0,0,1,89.222,14.674Zm0-7.951a2.865,2.865,0,1,0,2.865,2.865A2.868,2.868,0,0,0,89.222,6.724Z" transform="translate(-77.179 -4.503)"/><path class="a" d="M246.709,54.808H230.115a1.11,1.11,0,1,1,0-2.221h16.594a1.11,1.11,0,0,1,0,2.221Z" transform="translate(-210.07 -48.611)"/><path class="a" d="M269.515,176.945a5.085,5.085,0,1,1,5.086-5.085A5.091,5.091,0,0,1,269.515,176.945Zm0-7.95a2.865,2.865,0,1,0,2.865,2.865A2.868,2.868,0,0,0,269.515,168.995Z" transform="translate(-242.565 -153.357)"/><path class="a" d="M18.947,217.071H1.11a1.11,1.11,0,0,1,0-2.221H18.947a1.11,1.11,0,0,1,0,2.221Z" transform="translate(0 -197.458)"/><path class="a" d="M367.412,217.071H361.7a1.11,1.11,0,0,1,0-2.221h5.715a1.11,1.11,0,0,1,0,2.221Z" transform="translate(-330.772 -197.458)"/><path class="a" d="M74.2,339.208a5.086,5.086,0,1,1,5.086-5.086A5.091,5.091,0,0,1,74.2,339.208Zm0-7.951a2.865,2.865,0,1,0,2.865,2.865A2.868,2.868,0,0,0,74.2,331.258Z" transform="translate(-63.398 -302.203)"/><path class="a" d="M232.926,379.335H215.089a1.11,1.11,0,1,1,0-2.221h17.837a1.11,1.11,0,1,1,0,2.221Z" transform="translate(-196.286 -346.305)"/><path class="a" d="M6.825,379.334H1.11a1.11,1.11,0,0,1,0-2.221H6.825a1.11,1.11,0,0,1,0,2.221Z" transform="translate(0 -346.304)"/></svg>
