<svg xmlns="http://www.w3.org/2000/svg" width="44.452" height="44.935" viewBox="0 0 44.452 44.935"><defs><style>.a{fill:#0090d4;}</style></defs><path class="a" d="M45.545,21.275a3.745,3.745,0,0,0-2.838-1.3h-.266V16.229a3.751,3.751,0,0,0-3-3.67V5.745A.749.749,0,0,0,38.7,5H36.45V2.749A.749.749,0,0,0,35.7,2H10.238a.749.749,0,0,0-.749.749V8.066a3.751,3.751,0,0,0-3,3.67v.749H5.745A3.749,3.749,0,0,0,2,16.229V46.186a1.236,1.236,0,0,0,.174.481.749.749,0,0,0,.574.268H39.113a3.715,3.715,0,0,0,3.7-3.164l3.6-19.5A3.745,3.745,0,0,0,45.545,21.275Zm-4.6-5.045v3.745h-1.5V14.12a2.247,2.247,0,0,1,1.5,2.109Zm-3,3.745H13.983V6.493H37.948ZM10.987,3.5H34.952V5H13.234a.749.749,0,0,0-.749.749V19.974h-1.5ZM3.5,16.229a2.247,2.247,0,0,1,2.247-2.247h1.5a.749.749,0,0,0,.749-.749v-1.5a2.247,2.247,0,0,1,1.5-2.109V20a3.7,3.7,0,0,0-3.37,3.138L3.5,37.77Zm41.436,7.8-3.6,19.5a2.261,2.261,0,0,1-2.222,1.913H3.648L7.6,23.385a2.261,2.261,0,0,1,2.222-1.913H42.707a2.247,2.247,0,0,1,2.227,2.555Z" transform="translate(-2 -2)"/><path class="a" d="M40.221,14H20.749a.749.749,0,0,0,0,1.5H40.221a.749.749,0,1,0,0-1.5Z" transform="translate(-6.52 -5.013)"/><path class="a" d="M20.749,10a.749.749,0,0,0,0,1.5H40.221a.749.749,0,1,0,0-1.5Z" transform="translate(-6.52 -4.009)"/><path class="a" d="M40.221,18H20.749a.749.749,0,0,0,0,1.5H40.221a.749.749,0,1,0,0-1.5Z" transform="translate(-6.52 -6.017)"/><path class="a" d="M40.221,22H20.749a.749.749,0,0,0,0,1.5H40.221a.749.749,0,1,0,0-1.5Z" transform="translate(-6.52 -7.022)"/></svg>
