<svg xmlns="http://www.w3.org/2000/svg" width="39.348" height="44.545" viewBox="0 0 39.348 44.545"><defs><style>.a{fill:#0090d4;}</style></defs><path class="a" d="M32.666,43.8V3.712a.742.742,0,0,0-.742-.742H20.371L19.947,0H12.72L12.3,2.97H.742A.742.742,0,0,0,0,3.712V43.8a.742.742,0,0,0,.742.742H31.924A.742.742,0,0,0,32.666,43.8ZM13.289,6.5l.718-5.013h4.652L19.376,6.5,23.757,7.96v.949H8.909V7.96Zm14.923.926V34.151H22.272V40.09H4.454V7.424h2.97v2.97H25.242V7.424Zm-1.05,28.212-3.4,3.4v-3.4Zm4.019,7.424H1.485V4.454h10.6l-.131.926-1.679.559H2.97V41.575H23.322L29.7,35.2V5.939h-7.3L20.713,5.38l-.131-.926h10.6Zm0,0"/><path class="a" d="M377.507,82.332a.743.743,0,0,0,1.441,0l1.485-5.939a.318.318,0,0,0,0-.074.7.7,0,0,0,.022-.106V48.742a.742.742,0,0,0-.742-.742h-2.97a.742.742,0,0,0-.742.742V76.212a.735.735,0,0,0,.021.1c0,.025,0,.05,0,.074Zm1.463-6.862h-1.485V53.939h1.485Zm-.742,3.621-.534-2.136h1.068Zm-.742-29.605h1.485v2.97h-1.485Zm0,0" transform="translate(-341.107 -43.546)"/><path class="a" d="M67.712,128h-2.97a.742.742,0,0,0-.742.742v2.97a.742.742,0,0,0,.742.742h2.97a.742.742,0,0,0,.742-.742v-2.97A.742.742,0,0,0,67.712,128Zm-.742,2.97H65.485v-1.485H66.97Zm0,0" transform="translate(-58.061 -116.121)"/><path class="a" d="M67.712,192h-2.97a.742.742,0,0,0-.742.742v2.97a.742.742,0,0,0,.742.742h2.97a.742.742,0,0,0,.742-.742v-2.97A.742.742,0,0,0,67.712,192Zm-.742,2.97H65.485v-1.485H66.97Zm0,0" transform="translate(-58.061 -174.182)"/><path class="a" d="M67.712,256h-2.97a.742.742,0,0,0-.742.742v2.97a.742.742,0,0,0,.742.742h2.97a.742.742,0,0,0,.742-.742v-2.97A.742.742,0,0,0,67.712,256Zm-.742,2.97H65.485v-1.485H66.97Zm0,0" transform="translate(-58.061 -232.243)"/><path class="a" d="M67.712,320h-2.97a.742.742,0,0,0-.742.742v2.97a.742.742,0,0,0,.742.742h2.97a.742.742,0,0,0,.742-.742v-2.97A.742.742,0,0,0,67.712,320Zm-.742,2.97H65.485v-1.485H66.97Zm0,0" transform="translate(-58.061 -290.303)"/><path class="a" d="M128,128h12.621v1.485H128Zm0,0" transform="translate(-116.121 -116.121)"/><path class="a" d="M128,160h4.454v1.485H128Zm0,0" transform="translate(-116.121 -145.152)"/><path class="a" d="M128,192h12.621v1.485H128Zm0,0" transform="translate(-116.121 -174.182)"/><path class="a" d="M128,224h4.454v1.485H128Zm0,0" transform="translate(-116.121 -203.212)"/><path class="a" d="M128,256h12.621v1.485H128Zm0,0" transform="translate(-116.121 -232.243)"/><path class="a" d="M128,288h4.454v1.485H128Zm0,0" transform="translate(-116.121 -261.273)"/><path class="a" d="M128,320h12.621v1.485H128Zm0,0" transform="translate(-116.121 -290.303)"/><path class="a" d="M128,352h4.454v1.485H128Zm0,0" transform="translate(-116.121 -319.334)"/></svg>
