<svg xmlns="http://www.w3.org/2000/svg" width="48.049" height="42.457" viewBox="0 0 48.049 42.457"><defs><style>.a{fill:#0090d4;stroke:#0090d4;stroke-width:0.5px;}</style></defs><g transform="translate(0.25 0.25)"><g transform="translate(0 0)"><path class="a" d="M221.855,191.141h-22.1a.7.7,0,1,0,0,1.393h22.1a.7.7,0,1,0,0-1.393Z" transform="translate(-180.569 -176.186)"/><path class="a" d="M221.855,248.474h-22.1a.7.7,0,1,0,0,1.393h22.1a.7.7,0,1,0,0-1.393Z" transform="translate(-180.569 -228.195)"/><path class="a" d="M221.855,305.807h-22.1a.7.7,0,1,0,0,1.393h22.1a.7.7,0,1,0,0-1.393Z" transform="translate(-180.569 -280.203)"/><path class="a" d="M169.689,125.549H143.161a4.056,4.056,0,0,0-4.051,4.051v16.681a4.056,4.056,0,0,0,4.051,4.051h18.594a.642.642,0,0,1,.507.246l6,7.6a1.2,1.2,0,0,0,.943.463,1.233,1.233,0,0,0,.405-.069,1.2,1.2,0,0,0,.814-1.145v-7.165a4.07,4.07,0,0,0,3.311-3.982V129.6A4.056,4.056,0,0,0,169.689,125.549Zm2.658,20.732a2.667,2.667,0,0,1-2.624,2.657.7.7,0,0,0-.688.7v7.272l-5.681-7.193a2.027,2.027,0,0,0-1.6-.775H143.161a2.661,2.661,0,0,1-2.658-2.658V129.6a2.661,2.661,0,0,1,2.658-2.658h26.528a2.661,2.661,0,0,1,2.658,2.658Z" transform="translate(-126.191 -116.686)"/><path class="a" d="M10.262,50.49a1.857,1.857,0,0,0-1.2.69L4.275,57.238V51.167a.7.7,0,0,0-.688-.7,2.231,2.231,0,0,1-2.195-2.223V33.727A2.226,2.226,0,0,1,3.617,31.5H26.71a2.226,2.226,0,0,1,2.224,2.224v2.687a.7.7,0,1,0,1.393,0V33.727A3.621,3.621,0,0,0,26.71,30.11H3.617A3.621,3.621,0,0,0,0,33.727V48.248a3.634,3.634,0,0,0,2.882,3.541v6.163a1.132,1.132,0,0,0,.77,1.082,1.166,1.166,0,0,0,.383.065,1.131,1.131,0,0,0,.891-.437l5.227-6.618a.47.47,0,0,1,.3-.175.7.7,0,0,0-.2-1.379Z" transform="translate(0 -30.11)"/></g></g></svg>
